Patient4_TMGait_0pt6_01_left_35_EMG.mot
version=1
nRows=30
nColumns=33
inDegrees=no
endheader
time	1LAddLong	2LGlutMax	3LGlutMed	4LIliopsoas	5LSemiMemb	6LBicFemLong	7LRecFem	8LVastMed	9LVastLat	10LGasMed	11LTibAnt	12lTibPost	13LPeroneusLong	14LSol	15LExtDigLong	16LFlexDigLong	17RAddLong	18RGlutMax	19RGlutMed	20RIliopsoas	21RSemiMemb	22RBicFemLong	23RRecFem	24RVastMed	25RVastLat	26RGasMed	27RTibAnt	28RTibPost	29RPeroneusLong	30RSol	31RExtDigLong	32RFlexDigLong
43.873	0.007629	-0.14862	0.09613	-0.005646	0.032501	0.025635	-0.033417	-0.005646	0.071716	-0.027008	0.023956	0.00473	-0.049438	0.016632	0.006866	0.007629	-0.009003	-0.1683	-0.42129	0.093231	0.005341	0.17029	-0.09903	-0.42053	-0.1918	0.015869	0.078278	-0.045319	-0.54794	-0.17166	-0.006104	-0.012512
43.874	0.008545	-0.15808	0.00824	0.005646	0.025024	0.006561	-0.030518	0.007935	0.058136	-0.023346	0.001068	0.007477	-0.037231	-0.099335	0.001221	0.004425	0.004578	-0.18158	-0.13016	0.076447	0.002136	0.061646	-0.31998	-0.39322	-0.30731	0.13092	-0.002136	-0.016022	-0.045929	-0.4335	-0.00061	-0.007172
43.875	-0.003815	-0.13214	-0.007935	0.000763	0.021667	-0.007019	-0.022888	0.003815	0.046082	-0.027771	0.00946	0.015106	-0.022736	-0.18188	0.000153	0.004883	-0.011139	-0.18463	-0.15823	0.013275	0.021057	0.096893	-0.49133	-0.3067	-0.34897	0.11444	0.071259	0.016327	0.67169	-0.177	-0.002594	-0.008392
43.876	0.00946	-0.14633	-0.015869	0.011292	-0.005951	-0.015869	-0.027313	-0.008698	0.06134	-0.024109	0.024414	0	0.002136	-0.15717	-0.015564	0.017395	0.010834	-0.1799	-0.28	-0.1062	-0.002136	0.11627	-0.41458	-0.15243	-0.27298	0.016785	0.043488	-0.009613	-0.30045	-0.3595	-0.00351	0.002289
43.877	-0.007629	-0.13275	-0.015259	0.010376	-0.038757	0.018616	-0.048676	0.007629	0.056763	-0.032043	0.012512	0.011444	0.009003	-0.062256	-0.035706	0.005341	0.015564	-0.15808	0.3508	-0.18509	-0.017548	0.12039	-0.32501	0.002441	-0.22812	-0.006409	-0.047913	-0.08316	0.70374	-0.65643	0.001068	0.005798
43.878	-0.017242	-0.15778	-0.013885	0.021973	-0.045471	0.038147	-0.031586	0.004425	0.052338	-0.028839	0.018005	-0.003357	0.005798	-0.033722	-0.036316	0.004425	0.027771	-0.18204	0.74219	-0.20462	-0.018616	0.12711	-0.24139	0.16617	0.036316	-0.071869	-0.12558	-0.11185	1.105	-0.063324	-0.002289	-0.008545
43.879	0.004578	-0.13412	-0.030212	0.01358	-0.013275	0.078125	-0.018463	0.003204	0.055847	-0.01358	-0.00885	0.010529	0.027161	-0.025177	-0.018463	0.019989	0.004578	-0.15213	0.18967	-0.16403	-0.001068	0.1799	-0.45288	0.086823	0.16083	-0.030365	0.014038	0.000305	0.233	0.48416	-0.007629	-0.00946
43.88	-0.013733	-0.13336	-0.03479	0.003357	0.025787	0.13031	-0.039063	0.000305	0.051727	0.00412	-0.020294	-0.005035	-0.037384	-0.014343	-0.011292	0.012817	0.002441	-0.12863	0.005646	-0.1619	0.006256	0.20111	-0.35523	0.32577	0.30212	-0.005798	0.13626	-0.06485	-1.1282	0.31494	-0.002899	-0.011292
43.881	-0.020294	-0.11368	-0.039368	-0.020752	-0.014801	0.054169	-0.034943	-0.002136	0.050354	0.016174	-0.016174	-0.001221	0.18417	0.010529	0.008698	0.003662	-0.004425	-0.099335	0.11704	-0.17868	0.027313	0.21469	0.007172	0.46829	0.31158	0.097504	0.09613	-0.23163	-0.66361	0.40588	-0.003052	-0.012054
43.882	0.021362	-0.12619	-0.049286	-0.028229	-0.037079	0.019989	-0.024719	-0.013123	0.065002	0.024261	-0.003357	0.010223	0.32989	-0.002747	0.014343	0.006104	-0.003662	-0.076447	0.26535	-0.13367	0.043945	0.21744	0.29022	0.41824	0.20844	0.10986	-0.014648	-0.30411	-0.327	0.25772	-0.002899	-0.006866
43.883	0.04425	-0.13275	-0.032196	0.007629	0.027161	0.009613	-0.020447	-0.006561	0.039978	0.024719	0.041046	0.002594	-0.10025	0.004883	0.033112	0.003357	-0.003357	-0.052948	0.55512	-0.063171	0.033722	0.224	0.25177	0.23605	0.3389	0.075073	-0.066376	0.34134	-0.24826	0.15213	-0.006409	-0.015564
43.884	0.04776	-0.13153	-0.027161	0.072174	0.031281	-0.12528	-0.018158	-0.012817	0.028076	0.000305	0.063477	-0.00412	-0.62302	0.007935	0.034332	0.000763	0.006409	-0.065308	0.41016	0.1207	-0.020142	0.21606	0.098572	0.16403	0.49088	0.000916	0.019836	0.21927	-0.09079	-0.14755	-0.006256	-0.01709
43.885	0.041809	-0.15549	-0.053558	0.066376	0.042725	-0.068207	0.001221	-0.005493	0.014648	-0.028381	0.05722	-0.00946	-0.22583	-0.032654	-0.002899	-0.001068	0.0177	-0.038147	-0.035553	0.22003	-0.052643	0.19898	0.091705	0.076294	0.46219	-0.059052	0.015259	-0.042725	-0.057831	0.001373	-0.002899	-0.009766
43.886	0.019989	-0.13687	-0.12741	0.036926	0.033569	0.050507	-0.00473	-0.010681	0.012207	-0.030823	0.073395	-0.000916	-0.077209	-0.19226	-0.033569	-0.000916	0.014496	-0.005646	-0.083466	0.15915	-0.00885	0.16937	-0.048523	0.049744	0.38238	-0.076447	0.042877	-0.077362	-0.25574	0.028076	-0.003357	-0.014648
43.887	0.0177	-0.086212	-0.14755	0.02594	0.006409	0.069885	-0.019684	-0.006866	0.01297	-0.007019	0.067749	0.001526	0.070801	-0.224	-0.017548	-0.008392	0.007629	-0.037842	-0.24246	0.10498	0.016327	0.15442	-0.21271	0.032959	0.33218	-0.033112	0.023041	-0.086823	0.073395	-0.033417	0.006409	-0.009613
43.888	0.016327	-0.10712	-0.11826	0.010223	0.006256	0.073242	-0.024567	0.002594	0.015259	-0.008698	0.001373	-0.00061	0.0354	-0.18997	0.000916	-0.005646	-0.007019	-0.077057	-0.11047	0.027924	0.02594	0.1535	-0.097809	0.098419	0.29465	-0.034637	-0.009766	0.045319	0.29007	-0.015106	0.001221	0.002441
43.889	-0.007172	-0.11398	-0.071869	0.006256	0.004883	0.083313	-0.014496	0.010223	0.016022	-0.021667	-0.018616	-0.011902	-0.14313	-0.14145	0.004578	0.002747	0.001831	-0.089722	-0.2298	-0.021515	0.031433	0.14053	0.055237	0.25314	0.000458	-0.1004	0.059814	0.059509	0.12192	0.20462	0.00061	-0.005188
43.89	0.001068	-0.121	-0.037079	0.011902	0.010223	0.15091	-0.017548	0.00473	-0.010681	-0.013275	-0.00473	-0.029755	-0.14984	-0.073395	0.001068	-0.003967	-0.004578	0.0354	-0.29831	-0.064392	0.011749	0.1445	0.070038	0.14694	-0.37354	-0.094757	0.084839	-0.014496	0.010529	0.35461	-0.001984	-0.011597
43.891	0.00412	-0.1799	0.041962	0.015106	-0.000153	0.10407	0.002441	0	-0.016022	-0.01358	0.004425	-0.004272	-0.1239	-0.041351	-0.002747	-0.00885	0.003967	-0.031586	-0.8316	-0.067139	-0.019836	0.1506	0.10513	0.010071	-0.70419	-0.032654	-0.048065	-0.013885	0.63141	0.40924	0.004425	-0.000916
43.892	0.010376	-0.19501	0.017548	0.004883	-0.046539	0.079651	-0.003204	0.00351	-0.004883	-0.014038	0.013428	0.000763	-0.11139	-0.15747	0.008392	0.001984	0.00885	-0.090637	-0.20325	0.023804	0.000763	0.17227	0.14023	-0.012512	-0.33661	-0.042877	-0.1564	-0.008698	0.53894	0.15106	-0.001984	-0.00885
43.893	0.029602	-0.17136	0.011749	0.001526	-0.16602	0.027466	-0.038452	-0.002289	-0.003052	-0.012512	0.002289	-0.005646	-0.072327	-0.16602	0.012512	-0.00351	0.011444	-0.16449	0.41733	0.095062	-0.023193	0.15396	0.079651	-0.017548	-0.1384	-0.042114	0.031433	0.11185	-0.22995	-0.05188	-0.002136	-0.00473
43.894	0.024567	-0.16617	-0.012207	0.009613	-0.15961	-0.012054	-0.018463	-0.000153	0.002899	-0.029449	-0.020447	-0.008698	-0.06012	-0.074768	-0.003662	-0.005035	0.0177	-0.16968	0.42969	0.11856	-0.10895	0.15945	0.073853	-0.012207	-0.099945	0.032349	0.087585	0.027618	-0.57846	-0.12695	-0.003052	-0.003052
43.895	0.006409	-0.1622	-0.063477	0.011292	-0.004425	-0.027008	-0.011444	-0.010376	-0.008698	-0.027771	-0.018616	0.000916	-0.055237	-0.003052	-0.01236	0.001221	-0.003967	-0.18723	0.5246	-0.025787	-0.17532	0.17364	0.090485	0.001526	-0.079193	0.067291	0.10162	-0.069733	-0.41245	-0.065155	-0.007324	-0.002136
43.896	0.01297	-0.13046	-0.02243	-0.000305	0.036163	0.068665	-0.000305	0.001221	0.000916	-0.026398	-0.009918	-0.016327	-0.063477	-0.022888	-0.001831	0.00351	-0.006256	-0.14603	0.10819	-0.099945	-0.20447	0.1506	0.068207	0.014191	-0.062408	0.097046	0.094452	-0.1001	-0.40787	-0.088959	-0.001678	-0.006561
43.897	-0.000916	-0.11917	0.041351	0.005188	0.007172	0.10452	0.010071	0.008545	-0.005493	-0.023956	0.00885	-0.010529	-0.090179	-0.099182	0.022736	0.007324	-0.007172	-0.053711	0.1152	-0.040283	-0.058136	0.12787	0.065155	0.014801	-0.044403	0.10513	0.00473	-0.063477	0.45364	-0.14404	-0.001526	-0.007019
43.898	0.004272	-0.1506	-0.017548	0.009155	0.038452	0.11917	0.015564	0.006409	0.001221	-0.025177	0.001221	-0.002136	-0.12558	-0.12741	0.017242	-0.002289	0.01358	-0.11749	0.014496	0.075836	0.10208	0.025024	0.059509	-0.025482	-0.033264	0.070801	-0.024414	-0.019836	-0.14358	-0.17349	-0.00473	-0.017395
43.899	0.007019	-0.1471	-0.034027	0.014954	0.042419	0.071106	0.006714	0.008698	-0.003967	-0.014496	0.008392	-0.006256	-0.14771	-0.10742	-0.001221	0.006714	0.014801	-0.086823	0.037842	0.17944	0.11627	0.059662	0.054779	-0.050659	-0.046387	-0.03418	-0.068817	0.026093	0.1886	-0.30151	-0.004578	-0.011292
43.9	0.000305	-0.15976	0.018005	0.014343	0.02182	0.050354	0.014038	-0.009308	-0.002289	-0.014343	0.019379	-0.014801	-0.11337	-0.092621	-0.005035	-0.003204	0.001831	-0.14252	-0.00351	0.096283	-0.075531	0.13046	0.062103	-0.070038	-0.031738	-0.08316	0.000458	0.015106	-0.11398	-0.4306	-0.002136	-0.010529
43.901	-0.012512	-0.15457	0.055389	0.007477	0.029602	0.072632	0.028992	0.00351	-0.003357	-0.018005	0.013733	-0.005798	-0.11276	-0.092163	-0.013733	0.003052	0.004883	-0.12177	0.42206	0.023346	-0.065308	0.19516	0.03006	-0.041046	-0.018463	-0.04425	0.099487	-0.02243	0.12192	-0.2211	-0.002136	-0.0177
43.902	-0.008545	-0.12924	0.023041	0.00885	0.037384	0.13397	0.025635	0.005035	-0.015106	-0.02182	0.018616	-0.003204	-0.10849	-0.088501	-0.016785	0.000305	-0.007477	-0.10696	0.67947	-0.009155	0.016937	0.15625	0.075226	-0.02182	0.005646	0.004425	0.20111	-0.012512	0.34119	-0.013123	-0.00061	-0.017242
